<svg width="21.000000" height="16.000000" viewBox="0 0 21 16" fill="none" xmlns="http://www.w3.org/2000/svg" xmlns:xlink="http://www.w3.org/1999/xlink">
	<desc>
			Created with Pixso.
	</desc>
	<defs/>
	<path id="Vector" d="M13.71 11.42L13.71 2.28L2.28 2.28L2.28 11.42C2.28 12.03 2.52 12.61 2.95 13.04C3.38 13.47 3.96 13.71 4.57 13.71L11.42 13.71C12.03 13.71 12.61 13.47 13.04 13.04C13.47 12.61 13.71 12.03 13.71 11.42ZM1.14 0L18.28 0C18.89 0 19.47 0.24 19.9 0.66C20.33 1.09 20.57 1.67 20.57 2.28L20.57 5.71C20.57 6.32 20.33 6.9 19.9 7.33C19.47 7.75 18.89 8 18.28 8L16 8L16 11.42C16 12.64 15.51 13.8 14.66 14.66C13.8 15.51 12.64 16 11.42 16L4.57 16C3.35 16 2.19 15.51 1.33 14.66C0.48 13.8 0 12.64 0 11.42L0 1.14C0 0.83 0.12 0.54 0.33 0.33C0.54 0.12 0.83 0 1.14 0ZM16 2.28L16 5.71L18.28 5.71L18.28 2.28L16 2.28Z" fill="#331A15" fill-opacity="1.000000" fill-rule="nonzero"/>
</svg>
